<svg width="434" height="642" fill="none" xmlns="http://www.w3.org/2000/svg">
<path d="M67.6657 89.5941C56 111.278 35.8311 121.964 43.5 152C49.5 175.5 40.5097 202.661 35.4837 214.956C27.4137 234.698 36.2477 245.556 35.4837 268.3C34.5727 295.421 19.5167 312.186 7.13869 335.843C-8.25731 365.268 7.67168 370.425 17.6857 397.676C25.8017 419.763 24.1377 437.905 13.0717 457.943C4.71067 473.083 -0.935324 491.838 29.3877 491.838C59.7107 491.838 52.0917 509.113 43.8777 523.353C31.3437 545.086 29.3877 557.443 40.0127 573.782C56.2407 598.738 75.7817 591.536 94.1517 577.695C134.664 547.172 143.892 585.613 172.037 614.969C203.194 647.465 240.628 650.268 273.732 622.886C306.835 595.504 332.922 598.445 363.235 582.734C393.548 567.022 404.98 537.245 371.858 513.174C349.064 496.608 356.118 478.019 371.858 461.711C391.751 441.099 419.558 427.869 408.433 368.964C396.59 306.263 386.239 291.157 413.785 257.273C468.648 189.785 394.122 144.378 377.211 129.181C353.304 107.698 358.106 71.8301 371.858 54.0741C389.284 31.5751 379.161 -4.22593 343.287 1.24806C313.468 5.79806 326.694 30.1881 299.899 33.6081C267.28 37.7711 281.667 -2.21594 238.644 5.33006C197.195 12.6001 212.002 33.6081 188.311 39.7451C160.07 47.0631 153.763 15.7631 137.969 9.14506C123.884 3.24406 90.1927 12.1071 94.4277 49.3771C97.4807 76.244 77.7557 70.8391 67.6657 89.5941Z" fill="black"/>
</svg>
