<svg xmlns="http://www.w3.org/2000/svg" width="642" height="441" fill="none"><path fill="#000" d="M548.51 440.875c-18.393-10.218-44.804-29.841-44.804-50.253 0-20.413 30.447-13.699 49.201-23.788 18.755-10.09 13.35-29.815 40.217-26.762 37.27 4.235 46.133-29.456 40.232-43.541-6.618-15.794-37.918-22.101-30.6-50.342 6.137-23.691 27.145-8.884 34.415-50.333 7.546-43.023-32.441-28.636-28.278-61.255 3.42-26.795 27.81-13.569 32.36-43.388 5.474-35.874-30.327-45.997-52.826-28.571-17.756 13.752-53.624 18.554-75.107-5.353-15.197-16.911-60.604-91.437-128.092-36.574-33.884 27.546-48.99 17.195-111.691 5.352-58.905-11.125-72.135 16.682-92.747 36.575-16.308 15.74-34.897 22.794-51.463 0-24.071-33.122-53.848-21.69-69.56 8.623-15.711 30.313-12.77 56.4-40.152 89.503-27.382 33.104-24.58 70.538 7.917 101.695 29.356 28.145 67.797 37.373 37.274 77.885-13.841 18.37-21.043 37.911 3.913 54.139 16.339 10.625 28.696 8.669 50.429-3.865 14.24-8.214 31.515-15.833 31.515 14.49s18.755 24.677 33.895 16.316c20.038-11.066 38.18-12.73 60.267-4.614 27.251 10.014 32.408 25.943 61.833 10.547 23.657-12.378 40.422-27.434 67.543-28.345 22.744-.764 33.602 8.07 53.344 0 12.295-5.026 27.145-16.608 39.565 0 11.019 14.734 49.31 34.937 81.4 41.859Z"/></svg>