<svg xmlns="http://www.w3.org/2000/svg" width="650" height="440" fill="none"><path fill="#000" fill-rule="evenodd" d="M215.31 14.952C236.374 9.746 256.467-1.264 278.119.119c20.985 1.34 37.634 18.863 58.332 22.572 21.602 3.87 45.676-10.296 65.276-.425 19.119 9.63 17.457 42.944 36.905 51.888 42.134 19.376 108.771-10.827 135.22 27.267 20.604 29.675-47.215 58.922-50.392 94.908-3.333 37.758 38.349 70.517 32.483 107.965-5.51 35.173-31.423 68.395-62.757 85.298-32.214 17.377-74.027 19.07-108.636 7.156-35.763-12.312-47.996-81.98-84.922-73.791-52.674 11.681-56.008 113.652-109.859 116.987-38.933 2.411-25.068-73.216-43.719-107.476-13.539-24.87-38.878-41.382-51.197-66.877-12.401-25.665-25.677-54.096-20.83-82.185 4.95-28.68 36.071-45.607 47.501-72.372 10.273-24.054-2.342-57.433 15.928-76.15 18.873-19.335 51.628-13.45 77.858-19.932Z" clip-rule="evenodd"/></svg>