<svg xmlns="http://www.w3.org/2000/svg" fill="none" viewBox="0 0 96 157"><path fill="#fff" d="M79.18 107.166c-.92.961-1.824 1.891-2.712 2.84-.864.923-1.783 1.797-2.627 2.791.25.195.444.357.648.506 1.073.784 2.15 1.564 3.223 2.35.205.15.409.305.586.486.228.233.227.54-.013.75a6.429 6.429 0 0 1-.756.542c-1.123.721-2.18 1.519-3.127 2.462-2.25 2.241-3.443 4.934-3.498 8.109-.031 1.815.176 3.604.684 5.356.928 3.196 2.777 5.72 5.56 7.544.778.51 1.603.961 2.444 1.358 1.688.798 3.41 1.524 5.102 2.313 1.537.717 3.067 1.455 4.578 2.225 1.218.622 2.286 1.462 3.228 2.455 1.742 1.836 2.789 4.024 3.287 6.488.026.134.033.273.047.399-.21.108-.283-.046-.373-.131-.659-.621-1.305-1.254-1.97-1.868-1.062-.984-2.211-1.851-3.506-2.515-1.694-.869-3.49-1.328-5.395-1.264-1.571.053-3.078.438-4.523 1.054-.39.166-.776.344-1.165.514-2.341 1.014-4.792 1.358-7.312 1.063-2.894-.339-5.422-1.538-7.61-3.458a15.579 15.579 0 0 1-2.178-2.368c-1.221-1.626-2.436-3.261-3.653-4.893-.439-.59-.889-1.171-1.314-1.771-1.767-2.494-4.13-4.235-6.908-5.45-2.766-1.209-5.661-1.79-8.682-1.64-2.316.116-4.528.676-6.593 1.757-1.728.906-3.459 1.81-5.189 2.712-2.622 1.367-5.404 1.996-8.363 1.743a16.666 16.666 0 0 1-5.084-1.28c-5.529-2.335-9.719-6.135-12.534-11.424-1.51-2.836-2.595-5.829-3.126-9.002a27.344 27.344 0 0 1-.322-5.821c.108-2.318.388-4.612.754-6.899.523-3.276 1.348-6.467 2.79-9.472 2.629-5.484 6.679-9.612 12.037-12.482 1.398-.749 2.802-1.483 4.183-2.257 1.088-.609 2.13-1.29 3.027-2.17.956-.938 1.786-1.967 2.326-3.203.97-2.218.7-4.293-.742-6.227-.442-.593-.973-1.098-1.542-1.568a34.15 34.15 0 0 1-1.67-1.441c-1.216-1.143-1.996-2.517-2.144-4.205-.096-1.082.04-2.142.36-3.177a9.585 9.585 0 0 1 2.531-4.151 7.766 7.766 0 0 1 2.944-1.798c1.156-.392 2.353-.607 3.548-.835 1.445-.276 2.89-.556 4.332-.843a5.872 5.872 0 0 0 1.673-.593c2.433-1.33 3.1-3.869 2.818-5.8-.199-1.355-.707-2.613-1.307-3.833-.301-.61-.551-1.23-.69-1.904-.277-1.328-.061-2.585.497-3.794.715-1.551 1.88-2.669 3.425-3.386 1.391-.646 2.836-1.118 4.361-1.36.668-.105 1.33-.28 1.971-.494 2.532-.844 4.32-2.513 5.403-4.94.5-1.117.807-2.291.995-3.492.322-2.063.63-4.129.9-6.2.478-3.688 1.841-6.977 4.383-9.727 2.53-2.739 5.654-4.48 9.277-5.333 2.8-.66 5.608-.706 8.411-.01 3.165.784 5.656 2.537 7.436 5.257.508.777.962 1.603 1.32 2.46 1.34 3.21 2.034 6.563 2.153 10.044.148 4.348-.622 8.538-2.01 12.64-1.466 4.334-3.145 8.59-4.755 12.87a354.988 354.988 0 0 0-3.21 8.835c-.778 2.245-1.282 4.567-1.59 6.922-.833 6.365.263 12.37 3.437 17.974.64 1.13 1.324 2.236 1.974 3.362 1.16 2.01 2.228 4.065 2.922 6.287.27.86.466 1.743.69 2.617.043.162.077.332.086.5.028.466-.142.678-.602.757-.167.028-.337.04-.507.05-.17.008-.34.001-.51.003l-11.215.08c-.226 0-.455-.006-.678.022-.53.068-.807.356-.853.889-.018.194-.004.395.02.59.332 2.498 1.276 4.741 2.933 6.648 1.279 1.471 2.61 2.9 3.944 4.323 1.043 1.114 2.125 2.193 3.186 3.29.037.037.051.097.125.24l-.001.002ZM65.904 79.201c-.232-.157-.455-.321-.69-.466-1.77-1.077-3.72-1.628-5.747-1.946-.608-.096-1.183.033-1.723.32-.25.132-.496.272-.75.399-1.692.846-4.79 1.034-6.298-.334-.58-.525-1.385-.625-2.173-.468-.804.16-1.604.34-2.401.524-1.217.281-2.393.682-3.494 1.282-.136.075-.25.195-.367.287.167.353.447.506.694.686.83.604 1.755 1.03 2.72 1.364 1.638.567 3.328.891 5.053 1.064 3.405.343 6.782.202 10.123-.56 1.495-.338 2.944-.819 4.295-1.553.265-.145.577-.244.76-.6l-.002.001Z"/></svg>