<svg xmlns="http://www.w3.org/2000/svg" width="310" height="333" fill="none"><g fill="#fff" clip-path="url(#a)"><path d="M116.514 162.105c-1.345 1.41-2.67 2.774-3.967 4.165-1.264 1.354-2.608 2.636-3.844 4.094.364.287.648.523.949.741 1.57 1.152 3.145 2.293 4.715 3.448.3.22.598.449.858.714.335.343.332.791-.018 1.099-.341.298-.726.55-1.108.794-1.645 1.057-3.191 2.227-4.578 3.611-3.294 3.284-5.036 7.234-5.119 11.89-.048 2.663.255 5.286 1.002 7.856 1.36 4.685 4.064 8.389 8.137 11.062a29.392 29.392 0 0 0 3.578 1.991c2.468 1.171 4.989 2.235 7.465 3.393a214.463 214.463 0 0 1 6.7 3.263c1.783.91 3.345 2.142 4.723 3.599 2.551 2.695 4.084 5.902 4.809 9.515.04.199.048.401.069.587-.308.156-.415-.067-.547-.191-.965-.911-1.91-1.84-2.883-2.74-1.554-1.444-3.235-2.713-5.13-3.688-2.481-1.274-5.106-1.948-7.898-1.853-2.3.077-4.502.643-6.617 1.546-.571.244-1.134.504-1.706.751-3.424 1.486-7.013 1.991-10.7 1.558-4.235-.496-7.935-2.256-11.136-5.07a22.75 22.75 0 0 1-3.188-3.476c-1.788-2.386-3.566-4.781-5.345-7.175-.643-.863-1.302-1.718-1.924-2.597-2.585-3.655-6.043-6.209-10.108-7.991-4.049-1.773-8.283-2.625-12.704-2.405-3.39.17-6.625.993-9.648 2.578a8224.09 8224.09 0 0 1-7.593 3.98c-3.838 2.004-7.908 2.925-12.238 2.556-2.577-.22-5.058-.871-7.439-1.879-8.089-3.422-14.223-8.995-18.34-16.752-2.208-4.16-3.797-8.548-4.575-13.202-.47-2.822-.606-5.668-.473-8.535.157-3.398.568-6.764 1.102-10.117.765-4.803 1.971-9.483 4.08-13.89 3.85-8.041 9.774-14.094 17.616-18.305 2.043-1.096 4.1-2.174 6.121-3.308 1.591-.892 3.116-1.892 4.429-3.183 1.4-1.375 2.616-2.885 3.405-4.698 1.416-3.253 1.026-6.295-1.086-9.13-.648-.871-1.424-1.609-2.258-2.299-.83-.688-1.66-1.375-2.444-2.113-1.78-1.676-2.923-3.69-3.138-6.167-.14-1.588.061-3.141.526-4.66.718-2.341 1.94-4.38 3.706-6.087a11.36 11.36 0 0 1 4.31-2.636c1.691-.573 3.445-.89 5.193-1.224 2.114-.403 4.226-.815 6.338-1.234a8.566 8.566 0 0 0 2.45-.871c3.562-1.949 4.534-5.673 4.12-8.509-.29-1.988-1.033-3.83-1.913-5.62-.44-.894-.807-1.805-1.012-2.79-.404-1.948-.088-3.79.73-5.564 1.05-2.275 2.753-3.913 5.014-4.965 2.035-.947 4.152-1.638 6.38-1.993a18.071 18.071 0 0 0 2.886-.725c3.703-1.237 6.32-3.685 7.908-7.242.73-1.638 1.182-3.361 1.456-5.121.473-3.027.922-6.056 1.315-9.093.701-5.408 2.694-10.231 6.413-14.264 3.703-4.017 8.275-6.568 13.578-7.82 4.096-.967 8.206-1.036 12.307-.017 4.634 1.15 8.278 3.72 10.882 7.71a22.465 22.465 0 0 1 1.931 3.605c1.963 4.71 2.975 9.626 3.151 14.731.218 6.374-.909 12.523-2.941 18.536-2.147 6.355-4.604 12.594-6.958 18.872-1.612 4.301-3.198 8.615-4.696 12.956-1.137 3.291-1.876 6.695-2.328 10.151-1.219 9.334.386 18.14 5.029 26.357.938 1.659 1.94 3.278 2.888 4.93 1.698 2.946 3.26 5.96 4.277 9.22.393 1.261.683 2.556 1.01 3.838.061.239.111.486.124.733.043.682-.207.996-.879 1.112a5.754 5.754 0 0 1-.741.072c-.247.013-.497.003-.747.005-5.469.04-10.939.077-16.409.117-.332 0-.667-.008-.994.035-.775.098-1.179.52-1.251 1.303a3.92 3.92 0 0 0 .032.866c.483 3.663 1.865 6.952 4.29 9.751 1.873 2.158 3.82 4.25 5.77 6.339 1.528 1.633 3.108 3.215 4.663 4.824.053.056.074.141.183.353l.003-.008Zm-19.428-41.008c-.337-.228-.667-.473-1.012-.682-2.59-1.58-5.443-2.39-8.41-2.854-.888-.141-1.73.048-2.522.467-.366.194-.725.398-1.094.584-2.476 1.24-7.01 1.519-9.219-.488-.847-.77-2.026-.916-3.18-.685-1.176.236-2.345.499-3.514.77-1.783.411-3.501.998-5.111 1.879-.2.109-.364.284-.534.42.244.517.653.743 1.015 1.006 1.214.886 2.566 1.508 3.982 1.999 2.396.831 4.87 1.309 7.393 1.563 4.984.502 9.925.295 14.816-.82 2.186-.499 4.306-1.203 6.282-2.28.388-.213.845-.356 1.113-.879h-.005Z"/><path d="M150.069 238.48c.135-.377.265-.76.406-1.134.728-1.914 1.15-3.884 1.129-5.944-.024-2.275-.587-4.423-1.538-6.475a22.443 22.443 0 0 0-3.422-5.312c-1.572-1.813-3.22-3.566-4.851-5.331-2.053-2.219-4.152-4.396-6.181-6.639-3.749-4.142-5.895-9.061-6.892-14.509-.56-3.063-.842-6.151-.693-9.267.303-6.462 2.194-12.441 5.481-17.994 1.758-2.968 3.836-5.7 6.11-8.294 1.803-2.055 3.605-4.112 5.347-6.22 2.381-2.88 4.498-5.941 6.179-9.294 1.337-2.663 2.235-5.445 2.338-8.432a13.717 13.717 0 0 0-1.583-6.942 15.568 15.568 0 0 0-3.884-4.802 45.915 45.915 0 0 0-3.183-2.382 201.396 201.396 0 0 0-4.752-3.177c-.481-.314-1.004-.561-1.589-.885 1.969-1.959 4.051-3.716 6.023-5.71-.401-.316-.715-.579-1.044-.818-1.371-1-2.753-1.993-4.121-2.999-.332-.245-.664-.502-.94-.805-.513-.563-.574-1.059-.186-1.696.234-.385.547-.725.845-1.067 1.822-2.095 3.65-4.184 5.472-6.276.133-.152.234-.33.401-.566-.276-.117-.48-.247-.701-.292-2.516-.512-5.034-1.006-7.55-1.521a11.653 11.653 0 0 1-1.674-.457c-.706-.262-.908-.584-.826-1.335.064-.57.207-1.139.364-1.694.508-1.794.949-3.602 1.249-5.442.696-4.277.555-8.5-.858-12.634-.688-2.017-.949-4.102-1.066-6.22-.236-4.274.54-8.325 2.575-12.111a26.91 26.91 0 0 1 3.288-4.813c1.079-1.258 2.192-2.488 3.289-3.727 1.374-1.553 2.705-3.136 3.905-4.83 2.009-2.83 3.159-5.983 3.68-9.392.483-3.164.513-6.353.51-9.541 0-2.336.348-4.625 1.065-6.844 1.44-4.455 4.123-8.001 7.994-10.622 4.213-2.851 8.886-4.28 13.971-3.99 5.735.327 10.775 2.477 15.052 6.326.797.717 1.522 1.53 2.202 2.36 3.217 3.924 4.134 8.392 3.044 13.3-.587 2.648-1.548 5.151-2.999 7.455-1.198 1.901-2.107 3.943-2.951 6.013-.667 1.63-1.034 3.337-1.039 5.084-.008 2.66.834 5.047 2.649 7.043 1.24 1.365 2.685 2.493 4.354 3.253 4.861 2.216 6.822 7.37 6.208 11.792-.483 3.48-2.139 6.313-4.71 8.65-.492.445-1.002.867-1.48 1.326-2.205 2.119-3.562 4.667-3.78 7.742-.12 1.68.239 3.297.948 4.826.856 1.845 2.142 3.34 3.773 4.54.733.539 1.498 1.038 2.236 1.571 2.29 1.654 4.453 3.454 6.275 5.631 2.869 3.419 4.593 7.362 5.274 11.753.541 3.504.164 6.95-1.06 10.271-1.714 4.643-4.325 8.753-7.752 12.323-2.07 2.159-4.548 3.714-7.386 4.678-2.194.746-4.404 1.455-6.596 2.214a36.101 36.101 0 0 0-3.113 1.235c-1.026.464-1.913 1.149-2.707 1.953-2.46 2.488-3.023 5.751-1.512 8.915.284.595.646 1.155.986 1.726 1.413 2.368 2.194 4.914 2.085 7.683-.141 3.544-1.53 6.578-3.94 9.153-1.965 2.103-4.346 3.566-7.093 4.42-3.48 1.083-6.968 2.132-10.445 3.229-2.726.86-5.449 1.722-8.05 2.928-2.996 1.391-5.73 3.159-8.022 5.559-1.987 2.078-3.167 4.547-3.425 7.412-.252 2.803.55 5.325 2.28 7.542.661.85 1.376 1.657 2.064 2.485 1.851 2.235 3.639 4.516 5.191 6.974 1.445 2.291 2.587 4.717 3.326 7.327 1.296 4.572 1.251 9.159.146 13.754-.165.683-.393 1.352-.558 2.037-.534 2.23-1.788 4.08-3.079 5.914-.061.088-.197.122-.298.181a9.364 9.364 0 0 1-.18-.122l-.005-.021Zm21.94-159.639c-.159-.109-.279-.223-.42-.281a25.455 25.455 0 0 0-4.255-1.338c-1.486-.324-2.878-.21-4.195.568-.662.39-1.376.533-2.139.541-.927.008-1.809-.151-2.648-.555-1.589-.761-3.194-.756-4.809-.093-1.185.489-2.375.967-3.557 1.466-.159.066-.42.08-.404.433.253.148.524.334.813.475 1.119.552 2.296.94 3.499 1.253 2.42.632 4.891.844 7.383.828 2.199-.013 4.38-.218 6.505-.833 1.039-.3 2.041-.685 2.957-1.267.481-.305.965-.624 1.27-1.202v.005Z"/><path d="M278.437 83.601c.438.584 1.028.818 1.522 1.163.51.356 1.036.688 1.556 1.027a1843.108 1843.108 0 0 1 3.016 1.978c.507.34 1.012.688 1.596 1.083-1.341.983-2.794 1.598-4.046 2.437-.021.417.277.47.473.582 1.294.74 2.601 1.46 3.9 2.195.351.2.76.358.797.852-.553.375-1.142.683-1.623 1.115-1.799 1.61-2.744 3.605-2.572 6.058.04.577.104 1.155.215 1.723.433 2.244.694 4.503.582 6.791-.143 2.971-.768 5.827-2.189 8.466-1.801 3.345-4.492 5.583-8.219 6.499-1.791.441-3.605.52-5.43.255-1.599-.231-3.191-.512-4.787-.751-1.156-.173-2.309-.168-3.456.103a6.33 6.33 0 0 0-3.361 1.999c-.723.815-1.265 1.742-1.687 2.74-.483 1.144-.946 2.296-1.421 3.443-.51 1.229-1.129 2.397-1.905 3.481-2.255 3.159-5.361 4.863-9.184 5.277-1.894.205-3.799.306-5.695.486-1.897.183-3.789.404-5.683.619-.906.103-1.806.233-2.712.339-1.966.231-3.778.903-5.47 1.915-.212.127-.43.252-.63.4-4.659 3.475-8.253 7.76-10.108 13.351-.786 2.376-1.139 4.829-1.147 7.333-.008 3.005-.431 5.944-1.496 8.766-.885 2.346-2.099 4.499-3.82 6.344-1.53 1.641-3.355 2.804-5.515 3.454-2.659.802-5.369 1.394-8.081 1.986-4.126.9-8.244 1.842-12.377 2.705-3.584.749-6.227 2.798-8.217 5.769-1.892 2.825-2.941 5.915-2.784 9.358.045 1.004.26 1.973.571 2.915.55 1.67.794 3.398.797 5.134a17.735 17.735 0 0 1-.97 5.857c-1.66 4.807-4.588 8.678-8.673 11.689-.192.14-.412.236-.619.353-.215-.282-.016-.444.071-.6.861-1.511 1.719-3.024 2.604-4.524 1.27-2.158 2.234-4.433 2.755-6.886.722-3.393.515-6.749-.399-10.075-.382-1.397-.797-2.785-1.158-4.187a24.295 24.295 0 0 1-.656-8.259c.494-5.506 2.967-9.833 7.725-12.78 2.096-1.298 4.362-2.193 6.713-2.893 1.746-.523 3.504-1.001 5.252-1.514 1.793-.525 3.544-1.154 5.199-2.033 3.199-1.697 5.746-4.043 7.322-7.354 1.03-2.166 1.487-4.465 1.586-6.849.069-1.704-.168-3.388-.348-5.076-.256-2.368-.136-4.72.448-7.03.912-3.589 2.923-6.456 5.861-8.689 1.557-1.184 3.262-2.121 5.026-2.955 1.498-.706 3.018-1.369 4.498-2.113 3.424-1.723 6.588-3.831 9.343-6.517 1.487-1.452 2.85-3.008 3.91-4.805 1.371-2.323 2.2-4.819 2.295-7.524.112-3.167-.796-6.045-2.566-8.662-.794-1.174-1.75-2.204-2.771-3.181-.358-.345-.719-.687-1.054-1.054-2.986-3.244-3.895-7.014-2.864-11.282.335-1.389.959-2.634 1.724-3.829a493.632 493.632 0 0 0 4.221-6.735c.415-.669.787-1.364 1.143-2.065 1.873-3.68 2.008-7.455.597-11.31-.544-1.486-1.309-2.856-2.17-4.18-.858-1.32-1.719-2.64-2.518-3.993-1.544-2.615-2.79-5.363-3.502-8.328-.794-3.305-.953-6.645-.273-9.98 1.076-5.293 4.107-9.137 8.873-11.633 2.478-1.298 5.137-2.086 7.855-2.676a31.145 31.145 0 0 1 6.41-.716c4.291-.027 8.392.846 12.319 2.559 4.495 1.959 8.442 4.736 11.991 8.097 5.409 5.12 9.123 11.328 11.591 18.302.855 2.415 1.53 4.898 2.253 7.359.818 2.784 1.727 5.532 3.026 8.136 1.078 2.161 2.398 4.16 4.022 5.955.22.244.446.494.619.773a.685.685 0 0 1-.245.974 6.495 6.495 0 0 1-1.129.502c-1.878.647-3.764 1.28-5.645 1.922-.34.117-.675.252-1.102.414v.005Zm-33.949-16.244c.186.47.59.626.93.841 1.201.757 2.511 1.27 3.881 1.62 4.378 1.12 8.767 1.075 13.161.1 1.705-.377 3.342-.955 4.872-1.81.351-.197.752-.335.98-.735-.098-.088-.175-.205-.279-.24-1.846-.607-3.692-1.223-5.549-1.8-.911-.283-1.804-.14-2.649.298-.257.133-.502.287-.759.422-1.594.84-3.239.945-4.918.287-.459-.18-.906-.406-1.344-.64-.611-.324-1.209-.414-1.905-.21-1.944.571-3.91 1.073-5.865 1.61-.192.052-.367.166-.556.257Z"/><path d="M176.475 230.385c-.595-1.237-.8-2.429-.858-3.618-.239-4.954 1.086-9.419 4.338-13.237a16.946 16.946 0 0 1 5.441-4.263c2.917-1.442 5.945-1.75 9.059-.855 1.469.422 2.898.99 4.324 1.542 1.82.704 3.661 1.304 5.6 1.604 3.879.597 7.598.077 11.155-1.556.901-.414 1.77-.903 2.63-1.399 2.915-1.681 4.926-4.144 6.14-7.256.435-1.115.751-2.277 1.068-3.432.464-1.707.085-3.279-.885-4.726-.582-.868-1.318-1.593-2.115-2.262-.372-.313-.791-.584-1.115-1.061 1.346-1.211 2.861-2.148 4.247-3.332-.523-.656-1.222-1.03-1.825-1.511-.613-.488-1.246-.953-1.942-1.484.224-.207.37-.395.561-.512 1.591-.972 3.193-1.925 4.782-2.899.191-.117.497-.165.459-.576-1.681-.446-3.451-.59-5.233-1.054.019-.345-.005-.669.058-.977.843-4.107 2.75-7.603 5.986-10.327 2.818-2.371 6.08-3.823 9.651-4.633 2.718-.616 5.483-.825 8.254-.993 2.853-.172 5.703-.374 8.514-.939 3.151-.635 5.783-2.19 7.986-4.505 1.525-1.604 2.757-3.417 3.783-5.366.884-1.685 1.673-3.419 2.529-5.121.927-1.85 1.814-3.724 2.834-5.522 2.912-5.129 7.468-7.805 13.206-8.67 1.992-.3 3.964-.212 5.929.18 3.73.746 6.719 2.732 9.171 5.57 2.55 2.95 4.192 6.34 4.814 10.2.271 1.688.201 3.385 0 5.076-.144 1.192-.314 2.381-.412 3.576-.255 3.13.414 6.092 1.758 8.909.41.857.88 1.688 1.347 2.517.803 1.415 1.448 2.885 1.754 4.489.321 1.696.337 3.398-.258 5.028-1.546 4.24-4.407 7.043-8.95 7.893-2.378.446-4.657 1.165-6.825 2.232-.372.183-.744.369-1.097.584-2.016 1.227-2.996 3.035-2.946 5.384.013.616.136 1.232.236 1.843.101.61.25 1.215.362 1.826.473 2.583-.024 5.025-1.124 7.364-.765 1.622-1.804 3.069-3.007 4.394-1.53 1.683-3.51 2.453-5.709 2.705-1.812.21-3.637.236-5.459.12-2.304-.146-4.49-.749-6.586-1.684-2.622-1.17-5.045-2.684-7.321-4.422-1.826-1.394-3.754-2.573-5.962-3.26-2.991-.93-5.887-.701-8.684.703-2.027 1.017-3.746 2.445-5.236 4.134a223.84 223.84 0 0 0-4.423 5.208c-1.485 1.789-3.055 3.491-4.851 4.978-2.88 2.384-6.081 4.141-9.744 5.012-3.026.722-6.063.765-9.128.308-3.162-.47-6.084-1.561-8.81-3.218-1.275-.775-2.547-1.55-3.828-2.315-1.53-.913-3.081-1.786-4.752-2.426-2.038-.78-4.126-1.187-6.326-.926-1.593.188-3.078.684-4.425 1.526-4.376 2.74-6.921 6.671-7.561 11.806-.122.985-.204 1.975-.321 2.962-.022.184-.128.359-.242.664h-.016Zm92.539-56.307c-.391-.144-.657-.255-.93-.337-1.467-.436-2.93-.884-4.405-1.291-1.735-.478-1.474-.685-3.265.282-1.804.971-3.647.947-5.472.013a9.418 9.418 0 0 1-.967-.555c-.547-.372-1.089-.456-1.756-.271-1.99.558-4.001 1.044-5.999 1.569-.18.048-.342.178-.605.316.34.258.584.475.858.645 1.097.68 2.282 1.166 3.514 1.537 4.307 1.304 8.693 1.591 13.134.948 1.353-.196 2.675-.547 3.9-1.184.731-.379 1.443-.796 1.993-1.667v-.005Z"/></g><path fill="#fff" d="M36.296 332.38c-19.33 0-25.377-62.137-25.733-82.058-.118-.949.712-1.779 1.78-1.779h14.822c.949 0 1.779.83 1.779 1.779.237 26.088 5.336 58.816 7.352 58.816 2.134 0 5.336-28.934 5.573-58.816 0-.949.712-1.779 1.779-1.779h14.111c1.067 0 1.898.83 1.898 1.779-.12 20.396-2.254 82.058-23.361 82.058ZM89.378 331.313c-16.127 0-27.155-18.143-27.155-42.808 0-24.547 11.028-42.69 27.155-42.69 16.009 0 27.155 18.143 27.155 42.69 0 24.665-11.146 42.808-27.155 42.808Zm0-66.999c-5.218 0-8.894 10.317-8.894 24.191 0 13.993 3.676 24.309 8.894 24.309s8.775-10.316 8.775-24.309c0-13.874-3.557-24.191-8.775-24.191ZM137.583 330.602h-14.585c-1.067 0-1.779-.83-1.779-1.779v-78.62c0-.949.712-1.779 1.779-1.779h14.585c.949 0 1.779.83 1.779 1.779v78.62c0 .949-.83 1.779-1.779 1.779ZM192.358 304.039c.949 0 1.66.712 1.779 1.66 1.067 15.298-8.657 26.681-22.412 26.681-16.009 0-27.511-18.143-27.511-42.808 0-24.546 9.486-42.689 26.681-42.689 16.601 0 26.207 16.838 22.175 35.337-.119.83-.949 1.423-1.779 1.423h-13.874c-1.067 0-1.897-.949-1.779-2.016 1.66-9.605-.474-17.431-4.98-17.431-5.929 0-8.182 11.502-8.182 25.376 0 13.993 3.438 25.258 9.012 25.258 3.557 0 5.217-3.557 5.336-9.012 0-.949.711-1.779 1.779-1.779h13.755ZM218.362 332.38c-6.641 0-11.502-.474-14.823-4.387-4.032-4.862-5.573-24.191-5.573-38.065 0-16.127.949-27.867 5.692-33.559 5.573-6.759 17.076-7.826 34.507-7.945 1.067 0 1.779.83 1.779 1.779v14.467c0 1.067-.712 1.779-1.779 1.779-8.419.118-14.111.948-18.261 2.49-1.542.474-2.728 1.897-3.084 3.557-.355 1.898-.592 4.507-.711 7.234h12.095c.949 0 1.779.711 1.779 1.779v14.348c0 .949-.83 1.779-1.779 1.779h-11.976c.237 4.506.711 9.724 1.423 14.467.118.711.711 1.186 1.423 1.304 5.929.593 12.451-1.186 16.601-2.253 1.067-.237 2.134.593 2.134 1.779v15.178c0 .712-.474 1.423-1.185 1.661-4.151 1.423-13.756 2.608-18.262 2.608ZM252.974 291.351c-5.573-3.32-10.909-11.028-10.909-20.04 0-9.131 6.759-24.428 25.376-24.428 18.025 0 24.072 15.415 24.072 22.649 0 1.897-.118 3.439-.237 4.506-.118.949-.949 1.66-1.779 1.66h-14.111c-1.067 0-1.897-1.067-1.66-2.253.119-.83.356-1.897.356-2.964 0-2.609-2.016-6.76-7.59-6.76-4.98 0-7.352 3.558-7.352 6.878 0 2.727 1.661 4.862 4.388 6.522l17.55 10.317c5.573 3.201 11.621 9.961 11.621 21.226 0 12.807-9.486 23.716-25.258 23.716-16.127 0-24.191-12.925-24.191-22.886 0-1.067.119-2.49.356-3.557.119-.949.83-1.542 1.779-1.542h13.044c1.186 0 2.016.949 1.779 2.016 0 .474-.119.83-.119 1.186 0 4.032 3.32 6.522 7.589 6.522 4.151 0 6.759-3.083 6.759-6.048 0-2.49-1.067-4.743-3.557-6.166l-17.906-10.554Z"/><defs><clipPath id="a"><path fill="#fff" d="M.648 0H309.68v238.602H.648z"/></clipPath></defs></svg>