<svg xmlns="http://www.w3.org/2000/svg" xml:space="preserve" style="enable-background:new 0 0 711 711" viewBox="0 0 711 711" fill="#ffffff"><path d="M662 382.9c-.6-3.2-1.9-6.1-3.5-8.9-.9-1.6-1.9-3.3-2.7-5-2.7-5.6-4-11.5-3.5-17.7.2-2.4.5-4.7.8-7.1.4-3.4.5-6.7 0-10.1-1.2-7.7-4.5-14.4-9.6-20.3-4.9-5.6-10.8-9.6-18.2-11.1-3.9-.8-7.8-1-11.8-.4-11.4 1.7-20.4 7-26.2 17.2-2 3.6-3.8 7.3-5.6 11-1.7 3.4-3.3 6.8-5 10.2-2 3.9-4.5 7.5-7.5 10.7-4.4 4.6-9.6 7.7-15.9 9-5.6 1.1-11.2 1.5-16.9 1.9-5.5.3-11 .8-16.4 2-7.1 1.6-13.6 4.5-19.2 9.2-6.4 5.4-10.2 12.4-11.9 20.5-.1.6-.1 1.3-.1 1.9 3.5.9 7.1 1.2 10.4 2.1.1.8-.5.9-.9 1.1-3.2 1.9-6.3 3.8-9.5 5.8-.4.2-.7.6-1.1 1 1.4 1.1 2.6 2 3.9 3 1.2 1 2.6 1.7 3.6 3-2.8 2.4-5.8 4.2-8.4 6.6.6 1 1.5 1.5 2.2 2.1 1.6 1.3 3 2.8 4.2 4.5 1.9 2.9 2.7 6 1.8 9.4-.6 2.3-1.3 4.6-2.1 6.8-2.4 6.2-6.4 11.1-12.2 14.4-1.7 1-3.4 2-5.2 2.8-7.1 3.2-14.5 4.3-22.2 3.1-3.8-.6-7.5-1.8-11.1-3.2-2.8-1.1-5.7-2.2-8.6-3.1-6.2-1.8-12.2-1.2-18 1.7-4.2 2.1-7.8 4.9-10.8 8.5-6.5 7.6-9.1 16.5-8.6 26.3.1 2.4.5 4.7 1.7 7.2.2-.6.4-1 .5-1.3.2-2 .4-3.9.6-5.9 1.3-10.2 6.3-18 15-23.5 2.7-1.7 5.6-2.7 8.8-3 4.4-.5 8.5.3 12.6 1.8 3.3 1.3 6.4 3 9.4 4.8 2.5 1.5 5.1 3.1 7.6 4.6 5.4 3.3 11.2 5.5 17.5 6.4 6.1.9 12.1.8 18.1-.6 7.3-1.7 13.6-5.2 19.4-10 3.6-3 6.7-6.3 9.6-9.9 2.9-3.5 5.8-7 8.8-10.4 3-3.4 6.4-6.2 10.4-8.2 5.6-2.8 11.3-3.2 17.2-1.4 4.4 1.4 8.2 3.7 11.8 6.5 4.5 3.5 9.3 6.5 14.5 8.8 4.2 1.9 8.5 3.1 13.1 3.3 3.6.2 7.2.2 10.8-.2 4.4-.5 8.3-2 11.3-5.4 2.4-2.6 4.5-5.5 6-8.7 2.2-4.6 3.2-9.5 2.2-14.6-.2-1.2-.5-2.4-.7-3.6-.2-1.2-.4-2.4-.5-3.7-.1-4.7 1.8-8.3 5.9-10.7.7-.4 1.4-.8 2.2-1.2 4.3-2.1 8.8-3.6 13.6-4.4 9-1.7 14.7-7.3 17.8-15.7 1.2-3.1 1.2-6.5.6-9.9zm-84.3 7.6c-2.4 1.3-5.1 2-7.7 2.4-8.8 1.3-17.5.7-26.1-1.9-2.4-.7-4.8-1.7-7-3.1-.5-.3-1-.8-1.7-1.3.5-.3.8-.5 1.2-.6 4-1 8-2 11.9-3.1 1.3-.4 2.4-.2 3.5.5.6.4 1.3.8 1.9 1.1 3.6 1.9 7.3 1.9 10.9 0 3.6-1.9 3-1.5 6.5-.6 2.9.8 5.8 1.7 8.7 2.6.5.2 1.1.4 1.8.7-1.1 1.7-2.5 2.5-3.9 3.3z"/><path d="M428.4 413c5.4-1.2 10.8-2.4 16-3.9 4.3-1.3 7.9-3.6 11-6.9 3.4-3.7 5.8-7.9 7.6-12.6 2.1-5.6 3-11.5 3-17.4 0-5 .7-9.8 2.3-14.6 3.7-11.1 10.8-19.6 20.1-26.5.4-.3.8-.5 1.2-.8 3.4-2 7-3.3 10.9-3.8 1.8-.2 3.6-.5 5.4-.7 3.8-.4 7.5-.9 11.3-1.2 3.8-.4 7.6-.6 11.3-1 7.6-.8 13.8-4.2 18.2-10.5 1.5-2.2 2.8-4.5 3.8-6.9.9-2.3 1.9-4.6 2.8-6.8.8-2 1.9-3.8 3.3-5.4 1.8-2 4-3.3 6.7-4 2.3-.5 4.6-.5 6.9-.2 3.2.5 6.3 1 9.5 1.5 3.6.5 7.2.4 10.8-.5 7.4-1.8 12.8-6.3 16.3-12.9 2.8-5.2 4.1-10.9 4.3-16.8.2-4.5-.3-9-1.2-13.5-.2-1.1-.3-2.3-.4-3.4-.3-4.9 1.5-8.8 5.1-12 1-.9 2.1-1.5 3.2-2.2-.1-1-.9-1.3-1.6-1.7-2.6-1.5-5.2-2.9-7.7-4.4-.4-.2-1-.3-.9-1.2 2.5-1.7 5.4-2.9 8-4.8-1.2-.8-2.2-1.5-3.2-2.2-1-.7-2.1-1.4-3.1-2-1-.6-1.9-1.3-2.9-1.9-1-.7-2.1-1.3-3.1-2s-2.2-1.2-3-2.3c.8-.3 1.5-.6 2.2-.8 3.7-1.3 7.5-2.5 11.2-3.8.8-.3 1.5-.6 2.2-1 .7-.4.9-1.3.5-1.9-.3-.6-.8-1.1-1.2-1.5-3.2-3.6-5.8-7.5-8-11.8-2.6-5.2-4.4-10.6-6-16.2-1.4-4.9-2.8-9.8-4.5-14.6-4.9-13.9-12.3-26.2-23-36.4-7-6.7-14.9-12.2-23.8-16.1-7.8-3.4-15.9-5.1-24.5-5.1-4.3 0-8.5.5-12.7 1.4-5.4 1.2-10.7 2.7-15.6 5.3-9.5 5-15.5 12.6-17.6 23.1-1.3 6.6-1 13.3.5 19.8 1.4 5.9 3.9 11.4 7 16.6 1.6 2.7 3.3 5.3 5 7.9 1.7 2.6 3.2 5.4 4.3 8.3 2.8 7.7 2.5 15.2-1.2 22.5-.7 1.4-1.4 2.8-2.3 4.1-2.8 4.5-5.5 9-8.4 13.4-1.5 2.4-2.8 4.8-3.4 7.6-2 8.5-.2 16 5.7 22.4l2.1 2.1c2 1.9 3.9 4 5.5 6.3 3.5 5.2 5.3 10.9 5.1 17.2-.2 5.4-1.8 10.3-4.6 15-2.1 3.6-4.8 6.7-7.8 9.6-5.5 5.3-11.8 9.5-18.6 13-2.9 1.5-6 2.8-8.9 4.2-3.5 1.7-6.9 3.5-10 5.9-5.8 4.4-9.8 10.1-11.6 17.3-1.2 4.6-1.4 9.3-.9 14 .4 3.4.8 6.7.7 10.1-.2 4.7-1.1 9.3-3.1 13.6-3.1 6.6-8.2 11.2-14.5 14.6-3.3 1.7-6.8 3-10.3 4-3.5 1-7 2-10.4 3-4.7 1.4-9.2 3.2-13.3 5.8-9.5 5.9-14.4 14.5-15.3 25.4-.5 5.5-.1 11 1.3 16.4.7 2.8 1.5 5.5 2.3 8.3 1.8 6.6 2.2 13.3.8 20-1 4.9-2.9 9.4-5.5 13.7-1.8 3-3.5 6-5.2 9-.2.3-.6.6-.1 1.2.4-.2.9-.4 1.2-.7 8.1-6 13.9-13.7 17.2-23.2 1.3-3.8 1.9-7.7 1.9-11.6 0-3.5-.5-6.9-1.6-10.2-.6-1.9-1-3.8-1.1-5.8-.3-6.8 1.8-13 5.5-18.6 4-5.9 9.2-10 16.3-11.5 8.2-2.1 16.4-4 24.6-5.8zM534 174.5c3.9-1.1 7.8-2.1 11.6-3.2 1.4-.4 2.6-.2 3.8.4.9.5 1.8.9 2.7 1.3 3.3 1.3 6.6 1.1 9.8-.6.5-.3 1-.6 1.5-.8 1.7-.9 3.5-1.2 5.3-.6 3.7 1.1 7.4 2.4 11 3.6.2.1.4.3.6.5-.5.8-1.3 1.1-1.9 1.5-3 1.7-6.3 2.8-9.7 3.6-8.7 1.9-17.4 2-26.1-.2-2.7-.7-5.3-1.7-7.7-3.2-.7-.4-1.5-.7-1.8-1.7.2-.3.5-.5.9-.6z"/><path d="M346.7 457.3c-3.1-4.9-6.6-9.4-10.3-13.9-1.4-1.6-2.8-3.3-4.1-4.9-3.4-4.4-5-9.4-4.5-15 .5-5.7 2.9-10.6 6.8-14.7 4.6-4.8 10-8.3 15.9-11 5.2-2.4 10.6-4.1 16-5.8 6.9-2.2 13.8-4.3 20.7-6.4 5.5-1.7 10.2-4.6 14.1-8.8 4.8-5.1 7.5-11.1 7.8-18.2.2-5.5-1.3-10.6-4.1-15.3-.7-1.1-1.4-2.2-2-3.4-3-6.3-1.9-12.8 3-17.7 1.6-1.6 3.3-3 5.4-3.9 2-.9 4.1-1.7 6.2-2.5 4.4-1.5 8.7-2.9 13.1-4.4 5.6-1.9 10.6-5 14.7-9.3 6.8-7.1 12-15.3 15.4-24.5 2.4-6.6 3.2-13.5 2.1-20.4-1.3-8.7-4.8-16.6-10.5-23.4-3.6-4.3-7.9-7.9-12.5-11.2-1.5-1.1-3-2.1-4.4-3.1-3.2-2.4-5.8-5.4-7.5-9-1.4-3-2.1-6.3-1.9-9.6.4-6.1 3.1-11.2 7.5-15.4.9-.9 2-1.8 2.9-2.6 5.1-4.6 8.4-10.3 9.4-17.2 1.2-8.8-2.7-19-12.3-23.4-3.3-1.5-6.2-3.8-8.7-6.5-3.6-4-5.3-8.7-5.3-14 0-3.5.7-6.9 2.1-10.1 1.7-4.1 3.5-8.2 5.9-12 2.9-4.6 4.8-9.6 6-14.8 2.2-9.8.3-18.6-6-26.4-1.4-1.7-2.8-3.3-4.4-4.7-8.5-7.7-18.5-11.9-29.9-12.6-10.1-.6-19.4 2.3-27.8 7.9-7.7 5.2-13 12.3-15.9 21.1-1.4 4.4-2.1 9-2.1 13.6 0 6.3-.1 12.7-1 19-1 6.8-3.3 13-7.3 18.7-2.4 3.4-5 6.5-7.8 9.6-2.2 2.5-4.4 4.9-6.5 7.4-2.5 2.9-4.7 6.1-6.5 9.6-4 7.5-5.6 15.6-5.1 24.1.2 4.2.7 8.3 2.1 12.4 2.8 8.2 3.1 16.6 1.7 25.1-.6 3.7-1.5 7.3-2.5 10.8-.3 1.1-.6 2.2-.7 3.4-.2 1.5.2 2.1 1.6 2.7 1.1.4 2.2.7 3.3.9l15 3c.4.1.8.3 1.4.6-.3.5-.5.8-.8 1.1-3.6 4.2-7.3 8.3-10.9 12.5-.6.7-1.2 1.4-1.7 2.1-.8 1.3-.7 2.3.4 3.4.5.6 1.2 1.1 1.9 1.6 2.7 2 5.5 4 8.2 6 .7.5 1.3 1 2.1 1.6-3.9 4-8.1 7.5-12 11.4 1.2.6 2.2 1.1 3.2 1.8 3.2 2.1 6.3 4.2 9.4 6.3 2.2 1.5 4.3 3.1 6.3 4.7 3.2 2.7 5.8 5.8 7.7 9.5 2.3 4.3 3.3 9 3.1 13.8-.2 5.9-2 11.5-4.6 16.8-3.3 6.7-7.5 12.7-12.3 18.5-3.5 4.2-7 8.3-10.6 12.4-4.5 5.2-8.6 10.6-12.1 16.5-6.5 11-10.3 22.9-10.9 35.8-.3 6.2.3 12.3 1.4 18.4 2 10.8 6.2 20.6 13.7 28.8 4 4.5 8.2 8.8 12.3 13.2 3.2 3.5 6.5 7 9.6 10.6 2.8 3.2 5 6.7 6.8 10.6 1.9 4.1 3 8.3 3.1 12.9 0 4.1-.8 8-2.2 11.8-.3.7-.5 1.5-.8 2.3.1.1.2.2.4.2.2-.1.5-.2.6-.4 2.6-3.6 5.1-7.3 6.1-11.8.3-1.4.8-2.7 1.1-4 2.2-9.1 2.3-18.3-.3-27.3-1.6-5.5-3.9-10.3-6.7-14.9zm-.7-257c-.6-.3-1.1-.6-1.6-.9 0-.7.5-.7.8-.9 2.3-1 4.7-1.9 7.1-2.9 3.2-1.3 6.4-1.3 9.6.2 1.7.8 3.4 1.1 5.3 1.1 1.5 0 2.9-.3 4.2-1.1 2.6-1.5 5.4-1.8 8.3-1.1 2.9.6 5.7 1.5 8.5 2.7.3.1.5.3.8.6-.6 1.2-1.6 1.8-2.5 2.4-1.8 1.2-3.8 1.9-5.9 2.5-4.2 1.2-8.6 1.6-12.9 1.7-4.9 0-9.9-.4-14.7-1.6-2.4-.9-4.7-1.6-7-2.7z"/><path d="M310.9 479.4c-2.7-2.8-5.7-5.2-9.2-7-4.3-2.2-8.6-4.3-13-6.3-4.8-2.2-9.7-4.3-14.5-6.6-2.4-1.1-4.7-2.4-6.9-3.9-7.9-5.2-13.1-12.4-15.8-21.5-1.4-5-2-10.1-1.9-15.2.2-9 3.5-16.7 9.9-23.1 2.7-2.7 5.7-5 8.9-7 .7-.5 1.5-1 2.1-1.5.7-.6.7-1.5 0-2.1-.5-.5-1.1-1-1.7-1.4-3-2.2-6.1-4.5-9.1-6.7-.6-.4-1.1-.9-1.8-1.4 2.4-2.8 5-5.3 7.4-7.9 2.5-2.7 5.1-5.3 7.7-8.1-.2-.4-.3-.6-.4-.7-3-3.1-6.1-6.2-9-9.4-3.8-4-7.6-8.1-11.2-12.3-4.7-5.4-7.4-11.8-8.3-18.9-.1-.6-.1-1.1-.1-1.7.1-1.5.9-2.3 2.4-2.5.6-.1 1.3-.1 1.9-.1 10.6-.1 21.2-.2 31.8-.2h1.4c.5 0 1-.1 1.4-.1 1.3-.2 1.8-.8 1.7-2.2 0-.5-.1-1-.2-1.4-.6-2.5-1.2-5-2-7.4-2-6.3-5-12.2-8.3-17.9-1.8-3.2-3.8-6.3-5.6-9.6-9-15.9-12.1-33-9.7-51.1.9-6.7 2.3-13.3 4.5-19.7 2.9-8.4 6-16.8 9.1-25.1 4.6-12.2 9.3-24.3 13.5-36.6 3.9-11.7 6.1-23.6 5.7-35.9-.3-9.9-2.3-19.4-6.1-28.6-1-2.4-2.3-4.8-3.7-7-5-7.7-12.1-12.7-21.1-14.9-7.9-2-15.9-1.8-23.8 0-10.3 2.4-19.1 7.4-26.3 15.2-7.2 7.8-11.1 17.2-12.4 27.7-.8 5.9-1.6 11.8-2.5 17.6-.5 3.4-1.4 6.8-2.8 9.9-3.1 6.9-8.1 11.6-15.3 14-1.8.6-3.7 1.1-5.6 1.4-4.3.7-8.4 2-12.4 3.9-4.4 2-7.7 5.2-9.7 9.6-1.6 3.4-2.2 7-1.4 10.8.4 1.9 1.1 3.7 2 5.4 1.7 3.5 3.1 7 3.7 10.9.8 5.5-1.1 12.7-8 16.5-1.5.8-3.1 1.4-4.7 1.7l-12.3 2.4c-3.4.6-6.8 1.3-10.1 2.4-3.2 1.1-5.9 2.8-8.3 5.1-3.4 3.3-5.8 7.3-7.2 11.8-.9 2.9-1.3 6-1 9 .4 4.8 2.6 8.7 6.1 12 1.5 1.4 3.1 2.8 4.7 4.1 1.6 1.3 3.1 2.8 4.4 4.5 4.1 5.5 4.9 11.4 2.1 17.7-1.5 3.5-3.9 6.4-6.6 9.1-2.5 2.5-5.5 4.4-8.6 6.2-3.9 2.2-7.9 4.3-11.9 6.4-15.2 8.2-26.7 19.9-34.1 35.5-4.1 8.5-6.4 17.6-7.9 26.9-1 6.5-1.8 13-2.1 19.6-.3 5.6 0 11.1.9 16.6 1.5 9 4.6 17.5 8.9 25.6 8 15 19.9 25.8 35.5 32.5 4.6 2 9.4 3.2 14.4 3.6 8.4.7 16.3-1.1 23.7-5 4.9-2.6 9.8-5.1 14.7-7.7 5.9-3.1 12.1-4.7 18.7-5 8.6-.4 16.8 1.2 24.6 4.7 7.9 3.5 14.6 8.4 19.6 15.5 1.2 1.7 2.5 3.4 3.7 5 3.5 4.6 6.9 9.3 10.4 13.9 1.8 2.4 3.9 4.7 6.2 6.7 6.2 5.5 13.4 8.9 21.6 9.8 7.1.8 14.1-.1 20.7-3l3.3-1.5c4.1-1.8 8.4-2.8 12.8-3 5.4-.2 10.5 1.1 15.3 3.6 3.7 1.9 6.9 4.4 9.9 7.2 1.9 1.7 3.7 3.5 5.6 5.3.3.2.5.7 1.1.4 0-.4-.1-.8-.1-1.1-1.4-7-4.4-13.2-9.3-18.4zm-77.6-197.5c-3.8 2.1-7.9 3.5-12.2 4.4-9.5 2.2-19 2.6-28.7 1.6-4.9-.5-9.7-1.4-14.3-3-2.7-.9-5.4-2.2-7.7-3.9-.7-.5-1.5-.9-2-2 .3-.3.6-.6 1-.8 3.1-1.7 6.5-2.8 9.9-3.6 2.3-.5 4.5-1 6.8-1.5 2.2-.4 4.5-.2 6.2 1.3 4.3 3.9 13.1 3.4 17.9.9.7-.4 1.4-.8 2.1-1.1 1.5-.8 3.2-1.2 4.9-.9 5.7.9 11.3 2.5 16.3 5.5.7.4 1.3.9 2 1.3-.6 1.1-1.4 1.4-2.2 1.8zM586 547.9c-8.7-12.3-21.8-13.9-31.6-12.4l-30.9 4.9c-4.8.8-8.6-.1-10.7-3-2.6-3.7-2.3-9.6 4.3-14.3 7.3-5.2 13-2.5 15 .3.9 1.3 1.5 2.5 1.9 3.6.5 1.5 2.5 1.9 4 .8l18.3-13c1.2-.8 1.7-2.3 1.1-3.4-.7-1.4-1.7-3.1-3.2-5.1-5.6-8-25.4-19.1-48.9-2.5-24.3 17.2-21.5 40.1-14.5 50.1 7 9.9 19.9 13.3 29.8 11.7l31.6-5c4.3-.7 7.4.7 9.4 3.5 2.2 3.1 1.3 9-4.1 12.8-5.6 4-11.9 4.3-15.1-.2-.2-.4-.5-.8-.7-1.3-.6-1.4-2.5-1.7-3.9-.6l-17.2 12.1c-1.2.8-1.6 2.2-1.1 3.3.6 1.4 1.5 3 2.4 4.2 7.6 10.8 28.2 17.4 49.3 2.5 20.7-14.4 24.6-35 14.8-49zM507.7 608.6c-.8-1.4-2.9-1.5-4.3-.3-5.1 4.4-13.1 11.5-21.9 15.3-1 .4-2.1.2-2.7-.5-4.1-5-8.1-10.7-11.3-15.8l16.8-9.2c1.4-.8 2-2.3 1.4-3.5l-9.2-16.8c-.6-1.2-2.3-1.5-3.7-.7l-16.9 9.3c-1.5-3.2-2.9-6.4-3.6-9-.6-2.2.1-4.7 2-6.5 4.9-4.9 12.4-10.3 24.1-16.9 1.4-.8 2-2.3 1.3-3.5l-9.3-16.9c-.6-1.2-2.3-1.5-3.7-.7-24.5 13.5-39.9 23.7-43.4 35.8-3 10.4 3.1 24.9 13.5 43.8 8.9 16.2 23.6 37.7 32.3 40.1 7.2 2.1 14.4-1.2 23.6-6.3 6.4-3.5 19.2-12.2 24.2-17.1.8-.8 1.1-2 .6-2.9l-9.8-17.7zM420.5 634l-21.7 4c-1.6.3-2.6 1.6-2.4 2.9 1.3 7.2-.5 12.4-6.2 13.5-8.7 1.6-16.9-12.2-20.3-30.5-3.4-18.3-2.7-33.9 6.7-35.7 7-1.3 12.3 8.3 12 21.3 0 1.5 1.5 2.6 3.3 2.2l21.9-4.1c1.3-.2 2.3-1.2 2.4-2.4 1.8-25.4-17.4-44.8-43.5-40-27.2 5-37.8 31.6-31.7 63.9 6 32.3 28.6 52.7 53.8 48 21.7-4 34.3-21.8 28.8-41.6-.2-1.1-1.6-1.8-3.1-1.5zM328.8 565l-23.1-3.4c-1.6-.2-3 .6-3.2 1.9l-15.4 103.8c-.2 1.3.9 2.6 2.5 2.8l23.1 3.4c1.6.2 3-.6 3.2-1.9l15.4-103.8c.2-1.3-.9-2.5-2.5-2.8zM268.3 546.5c-22.3-12.7-49.8-.4-66 28.2-16.2 28.6-12.6 58.4 9.7 71.1 22.3 12.7 49.8.4 66-28.2 16.2-28.6 12.6-58.4-9.7-71.1zm-15.9 56.6c-9.2 16.2-21 25.3-28.3 21.1-7.3-4.1-5.5-18.9 3.7-35.1 9.2-16.2 21-25.3 28.3-21.1 7.2 4.1 5.5 18.9-3.7 35.1zM225.2 526.1c.8-1 .5-2.7-.8-3.7l-17.9-14.1c-1.2-1-2.9-.9-3.7.1-24.9 31.2-52.9 58.2-55.5 56.1-2.6-2.1 18-41.4 39.3-68.9.8-1 .4-2.7-.8-3.6l-18.7-14.7c-1.3-1-3-.9-3.8.1-15.9 21.1-59.6 92.4-35.3 111.5 26.6 20.9 80.2-41.6 97.2-62.8z"/><path d="M355.5 711c-48 0-94.5-9.4-138.4-27.9-42.3-17.9-80.4-43.5-113-76.2-32.6-32.6-58.3-70.7-76.2-113C9.4 450.1 0 403.5 0 355.5S9.4 261 27.9 217.1c17.9-42.3 43.5-80.4 76.2-113s70.7-58.3 113-76.2C261 9.4 307.5 0 355.5 0S450 9.4 493.9 27.9c42.3 17.9 80.4 43.5 113 76.2 32.6 32.6 58.3 70.7 76.2 113C701.6 261 711 307.5 711 355.5s-9.4 94.5-27.9 138.4c-17.9 42.3-43.5 80.4-76.2 113-32.6 32.6-70.7 58.3-113 76.2-43.8 18.5-90.4 27.9-138.4 27.9zm0-700.4c-92.1 0-178.8 35.9-243.9 101-65.2 65.2-101 151.8-101 243.9s35.9 178.8 101 243.9c65.2 65.2 151.8 101 243.9 101s178.8-35.9 243.9-101 101-151.8 101-243.9-35.9-178.8-101-243.9c-65.1-65.2-151.8-101-243.9-101z"/></svg>