<svg xmlns="http://www.w3.org/2000/svg" width="320" height="320" fill="none"><g fill="#fff" clip-path="url(#a)"><path d="M162.34 319.998c-4.007-.062-7.865-.205-11.718-.515-3.203-.26-6.398-.582-9.58-1.018a158.242 158.242 0 0 1-21.318-4.408c-20.43-5.742-38.773-15.464-55.207-28.814-10.972-8.911-20.728-18.979-29.095-30.371-9.08-12.365-16.14-25.796-21.31-40.219-2.95-8.236-5.245-16.654-6.945-25.233-.682-3.442-1.306-6.894-1.725-10.379-.218-1.817-.363-3.642-.502-5.466-.304-4.031-.577-8.062-.873-12.094-.144-1.946-.027-3.887.045-5.831.022-.611.07-1.219.094-1.827.153-3.888.478-7.762.873-11.633.509-4.973 1.227-9.915 2.157-14.824 2.476-13.059 6.403-25.66 12.022-37.725 6.886-14.793 15.985-28.105 27.011-40.126 8.427-9.188 17.743-17.355 28.11-24.318 13.281-8.92 27.664-15.432 43.113-19.613a156.452 156.452 0 0 1 17.157-3.611c3.439-.528 6.893-.933 10.359-1.265 5.071-.484 10.151-.7 15.239-.706 3.518-.004 7.037.105 10.548.358 18.162 1.307 35.488 5.803 51.956 13.565 11.888 5.603 22.86 12.651 33.09 20.868 5.011 4.024 9.797 8.298 14.317 12.864 17.236 17.4 29.705 37.705 37.316 60.966a168.55 168.55 0 0 1 5.786 23.177 189.105 189.105 0 0 1 1.842 12.906c.476 4.477.791 8.962.937 13.462.096 2.937.151 5.873.063 8.809-.099 3.239-.192 6.478-.527 9.705-.265 2.579-.478 5.167-.813 7.736a147.922 147.922 0 0 1-1.956 11.382c-2.364 11.244-5.987 22.068-10.817 32.496-5.104 11.025-11.437 21.307-18.783 30.979-5.068 6.674-10.574 12.959-16.614 18.777-10.218 9.848-21.608 18.082-34.23 24.608-11.742 6.07-24.093 10.462-36.983 13.391-4.739 1.075-9.506 1.979-14.318 2.638-4.777.653-9.575 1.085-14.394 1.221-1.491.043-2.983.064-4.33.091l.003-.003ZM8.958 156.27c.077 2.74.108 5.028.218 7.313.117 2.476.29 4.947.476 7.418.294 3.919.796 7.811 1.378 11.699a168.028 168.028 0 0 0 3.506 17.253c3.076 11.864 7.446 23.227 13.249 34.037 7.742 14.425 17.67 27.177 29.56 38.421a171.482 171.482 0 0 0 22.272 17.803c12.653 8.496 26.231 15.039 40.896 19.292a137.388 137.388 0 0 0 16.659 3.728c3.399.541 6.815.942 10.245 1.247 3.277.294 6.561.451 9.847.518 4.167.086 8.333-.034 12.498-.296a167.03 167.03 0 0 0 12.435-1.257 159.421 159.421 0 0 0 14.425-2.681c10.728-2.512 21.049-6.154 30.92-11.036 13.337-6.598 25.273-15.173 35.945-25.508a161.2 161.2 0 0 0 12.766-13.932c8.371-10.256 15.413-21.343 20.943-33.374 7.669-16.68 11.979-34.218 13.462-52.47.258-3.191.404-6.392.488-9.593.138-5.376.076-10.75-.383-16.119-.347-4.07-.816-8.12-1.488-12.146a176.734 176.734 0 0 0-4.312-19.184c-2.928-10.304-6.789-20.244-11.723-29.758-7.857-15.153-18.032-28.568-30.47-40.277-8.848-8.332-18.437-15.697-28.861-21.97-9.964-5.994-20.474-10.789-31.594-14.235a138.536 138.536 0 0 0-28.628-5.67c-4.346-.393-8.697-.637-13.057-.622-3.021.01-6.042.102-9.059.252-4.393.222-8.766.673-13.124 1.272A163.821 163.821 0 0 0 123.23 9.2c-10.725 2.52-21.041 6.18-30.905 11.082-14.596 7.25-27.457 16.858-38.773 28.539-5.111 5.276-9.806 10.902-14.167 16.808-8.132 11.022-14.865 22.824-19.924 35.557a145.983 145.983 0 0 0-8.895 33.414c-.582 4.081-1.022 8.174-1.259 12.286-.189 3.273-.248 6.553-.351 9.381l.002.003Z"/><path d="M124.811 165.426c-1.241 1.298-2.463 2.555-3.662 3.836-1.167 1.247-2.408 2.428-3.549 3.771.337.262.6.482.875.682 1.45 1.059 2.904 2.113 4.353 3.175.278.202.553.412.792.656.309.314.306.73-.017 1.013-.313.275-.669.506-1.021.733-1.516.973-2.944 2.051-4.224 3.325-3.04 3.026-4.65 6.664-4.724 10.953-.043 2.452.237 4.868.923 7.234 1.254 4.317 3.751 7.726 7.511 10.19a27.176 27.176 0 0 0 3.301 1.834c2.279 1.078 4.604 2.058 6.891 3.124 2.076.969 4.142 1.966 6.183 3.006 1.645.839 3.088 1.975 4.36 3.315 2.354 2.481 3.767 5.436 4.439 8.763.036.182.046.37.065.54-.285.145-.383-.062-.505-.177-.89-.84-1.763-1.693-2.66-2.524-1.435-1.328-2.987-2.499-4.735-3.396-2.289-1.174-4.715-1.794-7.289-1.708-2.121.072-4.157.592-6.108 1.424-.527.224-1.048.465-1.574.694-3.162 1.369-6.473 1.834-9.876 1.436-3.909-.458-7.324-2.077-10.278-4.67a21.03 21.03 0 0 1-2.942-3.199c-1.65-2.197-3.291-4.405-4.935-6.609-.593-.797-1.2-1.582-1.774-2.393-2.388-3.367-5.578-5.719-9.331-7.36-3.736-1.634-7.647-2.419-11.727-2.216-3.13.157-6.116.913-8.905 2.373a3792.64 3792.64 0 0 1-7.009 3.664c-3.542 1.846-7.3 2.695-11.297 2.354-2.377-.203-4.668-.801-6.867-1.729-7.467-3.154-13.126-8.287-16.93-15.43-2.037-3.831-3.503-7.874-4.22-12.16-.436-2.6-.56-5.219-.436-7.862.146-3.132.524-6.23 1.019-9.319.705-4.424 1.82-8.734 3.767-12.794 3.552-7.406 9.022-12.983 16.26-16.859 1.887-1.011 3.784-2.003 5.65-3.048 1.468-.823 2.877-1.744 4.087-2.932 1.292-1.266 2.414-2.657 3.143-4.326 1.309-2.996.945-5.799-1.002-8.411-.598-.801-1.316-1.483-2.083-2.118-.766-.632-1.534-1.266-2.256-1.946-1.643-1.543-2.696-3.399-2.897-5.679-.129-1.462.056-2.893.486-4.291.663-2.159 1.792-4.034 3.42-5.608a10.488 10.488 0 0 1 3.976-2.428c1.562-.53 3.178-.82 4.793-1.128 1.952-.372 3.904-.751 5.85-1.138a7.938 7.938 0 0 0 2.26-.801c3.287-1.796 4.187-5.226 3.806-7.836-.267-1.83-.954-3.528-1.765-5.176-.406-.825-.744-1.662-.933-2.571-.373-1.794-.081-3.492.672-5.126.967-2.094 2.54-3.604 4.626-4.572 1.88-.873 3.832-1.51 5.892-1.837.901-.143 1.796-.38 2.662-.668 3.42-1.14 5.834-3.394 7.297-6.671.675-1.51 1.091-3.096 1.345-4.718.435-2.786.851-5.577 1.215-8.375.645-4.98 2.487-9.424 5.92-13.137 3.418-3.7 7.637-6.052 12.531-7.204 3.781-.892 7.575-.954 11.361-.014 4.274 1.059 7.64 3.428 10.043 7.1a20.601 20.601 0 0 1 1.782 3.323c1.811 4.337 2.749 8.866 2.909 13.567.201 5.873-.84 11.533-2.715 17.074-1.98 5.853-4.248 11.601-6.422 17.383-1.49 3.962-2.952 7.933-4.336 11.933-1.051 3.032-1.732 6.169-2.148 9.351-1.125 8.596.356 16.708 4.642 24.276.866 1.527 1.789 3.02 2.667 4.542 1.567 2.714 3.009 5.49 3.947 8.491.363 1.162.629 2.354.933 3.535.057.219.102.448.114.675.039.63-.191.916-.813 1.023a5.977 5.977 0 0 1-.684.067c-.23.012-.459.002-.689.005l-15.148.107c-.306 0-.614-.007-.916.031-.715.091-1.09.48-1.152 1.2-.024.262-.005.534.028.797.448 3.375 1.722 6.404 3.961 8.98 1.727 1.987 3.526 3.916 5.327 5.839 1.409 1.505 2.87 2.962 4.303 4.444.05.05.069.131.17.324l-.003.002Zm-17.932-37.772c-.313-.212-.614-.434-.932-.63-2.39-1.455-5.023-2.199-7.762-2.628-.82-.129-1.598.045-2.327.432-.338.178-.67.367-1.012.539-2.287 1.142-6.47 1.397-8.508-.451-.782-.709-1.87-.845-2.935-.632-1.086.217-2.167.46-3.243.708-1.644.379-3.232.921-4.72 1.732-.184.1-.337.262-.495.386.225.477.603.685.938.928 1.122.816 2.37 1.391 3.674 1.841 2.212.766 4.494 1.205 6.824 1.439 4.6.462 9.16.272 13.674-.756 2.019-.458 3.976-1.107 5.801-2.099.358-.196.779-.33 1.026-.811l-.003.002Z"/><path d="M154.801 235.282c.124-.348.244-.699.375-1.045.672-1.762 1.062-3.577 1.041-5.474-.022-2.096-.543-4.071-1.421-5.963a20.86 20.86 0 0 0-3.157-4.894c-1.452-1.672-2.971-3.285-4.478-4.909-1.894-2.044-3.834-4.05-5.707-6.116-3.459-3.814-5.442-8.343-6.362-13.364-.517-2.822-.775-5.665-.641-8.537.279-5.951 2.025-11.458 5.058-16.574 1.622-2.736 3.54-5.253 5.638-7.638 1.665-1.894 3.327-3.788 4.934-5.729 2.199-2.653 4.15-5.474 5.703-8.561 1.232-2.452 2.062-5.016 2.157-7.766a12.617 12.617 0 0 0-1.461-6.395 14.364 14.364 0 0 0-3.583-4.422 42.87 42.87 0 0 0-2.938-2.194 188.804 188.804 0 0 0-4.386-2.927c-.443-.289-.926-.518-1.466-.813 1.817-1.804 3.738-3.423 5.558-5.26-.37-.291-.66-.532-.964-.754-1.265-.923-2.54-1.834-3.803-2.762-.306-.224-.614-.462-.868-.741-.474-.518-.529-.976-.172-1.565.215-.356.505-.668.78-.983 1.681-1.929 3.37-3.852 5.051-5.782.122-.138.215-.303.371-.522-.254-.107-.443-.229-.648-.27-2.323-.472-4.648-.925-6.97-1.4a10.442 10.442 0 0 1-1.545-.422c-.653-.243-.84-.536-.763-1.231.057-.527.191-1.05.335-1.56.468-1.653.875-3.317 1.15-5.013.641-3.94.512-7.828-.792-11.635-.636-1.86-.875-3.779-.985-5.73-.218-3.938.497-7.668 2.377-11.155a24.748 24.748 0 0 1 3.036-4.434c.995-1.16 2.021-2.29 3.035-3.435 1.268-1.429 2.497-2.889 3.605-4.449 1.856-2.604 2.915-5.512 3.396-8.65.447-2.915.471-5.852.471-8.788 0-2.151.323-4.26.983-6.304 1.328-4.102 3.806-7.37 7.379-9.782 3.887-2.626 8.202-3.942 12.897-3.675 5.293.3 9.946 2.282 13.895 5.827.736.66 1.404 1.407 2.033 2.173 2.968 3.613 3.815 7.728 2.808 12.25-.543 2.438-1.431 4.744-2.768 6.865-1.105 1.75-1.944 3.63-2.724 5.538-.615 1.5-.954 3.075-.959 4.682-.007 2.45.77 4.65 2.444 6.488 1.146 1.257 2.481 2.295 4.021 2.996 4.49 2.042 6.296 6.786 5.729 10.862-.448 3.206-1.974 5.813-4.349 7.967-.452.41-.925.799-1.366 1.224-2.035 1.95-3.288 4.298-3.489 7.129-.11 1.548.22 3.036.875 4.444.789 1.698 1.976 3.077 3.483 4.18.677.497 1.382.957 2.066 1.449 2.115 1.524 4.11 3.182 5.793 5.185 2.648 3.151 4.239 6.781 4.866 10.824.499 3.228.153 6.402-.979 9.462-1.583 4.277-3.992 8.063-7.154 11.352-1.911 1.987-4.198 3.42-6.817 4.307-2.026.687-4.066 1.339-6.087 2.04-.974.336-1.935.713-2.873 1.135-.947.429-1.767 1.059-2.499 1.799-2.27 2.292-2.792 5.297-1.395 8.21.263.548.596 1.063.909 1.588 1.304 2.18 2.026 4.525 1.923 7.077-.131 3.265-1.411 6.061-3.635 8.432-1.816 1.937-4.012 3.284-6.547 4.071-3.212.997-6.434 1.963-9.639 2.975-2.514.792-5.03 1.586-7.432 2.697-2.767 1.281-5.288 2.91-7.405 5.119-1.835 1.915-2.923 4.188-3.162 6.827-.232 2.58.507 4.906 2.102 6.948.613.782 1.271 1.526 1.907 2.289 1.71 2.059 3.36 4.16 4.791 6.424 1.334 2.108 2.387 4.343 3.071 6.748 1.196 4.21 1.155 8.434.134 12.668-.153.629-.364 1.245-.514 1.874-.493 2.054-1.651 3.759-2.842 5.448-.055.079-.182.112-.273.165a5.41 5.41 0 0 0-.167-.112l.005-.003Zm20.252-147.039c-.146-.1-.256-.205-.388-.26a23.417 23.417 0 0 0-3.927-1.23c-1.371-.299-2.655-.194-3.873.524-.61.36-1.27.492-1.973.499-.856.007-1.672-.139-2.445-.51-1.466-.704-2.946-.697-4.439-.087-1.095.449-2.193.89-3.284 1.35-.146.062-.387.074-.373.399.234.138.483.307.751.439 1.031.508 2.119.865 3.229 1.154 2.234.582 4.514.778 6.815.763 2.03-.012 4.042-.2 6.006-.765.959-.277 1.884-.63 2.729-1.167.445-.281.889-.575 1.172-1.109Z"/><path d="M273.289 97.028c.405.539.948.751 1.405 1.07.468.33.956.633 1.435.948.447.293.897.584 1.344.878.481.314.961.624 1.437.942.469.312.933.632 1.474.997-1.239.904-2.579 1.471-3.734 2.244-.019.384.256.432.435.535 1.194.682 2.399 1.345 3.598 2.022.325.184.701.332.734.785-.509.343-1.055.63-1.497 1.026-1.66 1.483-2.533 3.322-2.375 5.581.038.532.095 1.064.198 1.586.402 2.068.641 4.148.538 6.254-.134 2.736-.708 5.367-2.018 7.8-1.663 3.079-4.148 5.142-7.587 5.984-1.653.406-3.33.48-5.011.234-1.476-.215-2.945-.472-4.418-.692-1.067-.157-2.131-.155-3.191.096a5.846 5.846 0 0 0-3.102 1.841c-.668.749-1.168 1.605-1.557 2.524-.445 1.054-.873 2.115-1.311 3.172a16.144 16.144 0 0 1-1.758 3.206c-2.081 2.91-4.947 4.479-8.477 4.861-1.748.188-3.506.279-5.257.448-1.751.167-3.497.372-5.246.57-.834.096-1.669.215-2.504.313-1.815.212-3.487.832-5.049 1.765-.196.117-.397.234-.579.37-4.301 3.198-7.618 7.146-9.328 12.295-.728 2.19-1.053 4.449-1.06 6.753-.007 2.769-.399 5.474-1.38 8.074-.816 2.161-1.938 4.145-3.526 5.846-1.413 1.512-3.097 2.583-5.09 3.182-2.454.739-4.956 1.283-7.458 1.827-3.807.83-7.608 1.696-11.426 2.493-3.307.689-5.747 2.578-7.584 5.314-1.746 2.602-2.715 5.448-2.569 8.62.043.925.242 1.815.529 2.686.509 1.538.731 3.129.736 4.73a16.293 16.293 0 0 1-.894 5.395c-1.533 4.427-4.236 7.993-8.006 10.767-.175.129-.38.217-.572.324-.198-.26-.016-.408.067-.553a328.557 328.557 0 0 1 2.402-4.165c1.172-1.987 2.062-4.083 2.542-6.344.665-3.125.474-6.216-.368-9.281-.354-1.286-.737-2.567-1.067-3.857a22.413 22.413 0 0 1-.605-7.607c.455-5.071 2.739-9.056 7.13-11.771 1.935-1.195 4.028-2.018 6.195-2.666 1.612-.48 3.234-.921 4.849-1.393 1.652-.484 3.272-1.064 4.798-1.873 2.951-1.562 5.305-3.723 6.759-6.774.952-1.994 1.373-4.112 1.464-6.306.065-1.572-.155-3.12-.323-4.675-.234-2.183-.127-4.348.416-6.476.842-3.306 2.698-5.946 5.408-8.002 1.438-1.091 3.012-1.956 4.641-2.722 1.382-.651 2.786-1.262 4.152-1.946 3.16-1.589 6.08-3.528 8.623-6.002 1.373-1.335 2.631-2.769 3.609-4.427 1.265-2.139 2.031-4.438 2.119-6.929.103-2.917-.737-5.567-2.368-7.981-.732-1.082-1.617-2.029-2.557-2.929-.33-.317-.662-.634-.973-.97-2.756-2.989-3.595-6.46-2.643-10.393.311-1.281.885-2.426 1.59-3.527a476.258 476.258 0 0 0 3.897-6.204c.38-.616.724-1.257 1.055-1.901 1.729-3.39 1.853-6.865.552-10.417-.502-1.369-1.21-2.63-2.004-3.85-.792-1.216-1.589-2.43-2.325-3.677-1.426-2.41-2.574-4.94-3.232-7.671-.732-3.046-.88-6.12-.253-9.193.992-4.875 3.791-8.415 8.19-10.717 2.286-1.195 4.743-1.92 7.252-2.464a28.663 28.663 0 0 1 5.917-.658c3.959-.024 7.748.78 11.369 2.357 4.15 1.805 7.793 4.362 11.069 7.458 4.992 4.718 8.422 10.433 10.699 16.857.79 2.225 1.412 4.51 2.079 6.778.756 2.565 1.593 5.095 2.791 7.495.995 1.991 2.213 3.83 3.712 5.483.204.224.412.456.57.713a.63.63 0 0 1-.225.897 6.139 6.139 0 0 1-1.041.463c-1.734.599-3.473 1.178-5.209 1.77-.316.107-.624.234-1.017.381l-.005.003Zm-31.335-14.963c.169.435.545.578.858.776 1.11.696 2.318 1.168 3.581 1.493 4.04 1.03 8.094.992 12.148.093 1.574-.348 3.086-.88 4.497-1.667.323-.182.694-.308.904-.678-.091-.081-.163-.188-.258-.222-1.706-.56-3.409-1.126-5.121-1.657-.84-.26-1.665-.132-2.445.272-.237.124-.464.264-.701.388-1.473.773-2.989.868-4.537.263a11.955 11.955 0 0 1-1.239-.59c-.564-.298-1.115-.381-1.758-.193-1.794.528-3.609.988-5.413 1.481-.177.048-.337.156-.514.24l-.002.002Z"/><path d="M181.384 228.315c-.55-1.14-.739-2.237-.792-3.332-.22-4.563 1.002-8.675 4.004-12.191a15.665 15.665 0 0 1 5.021-3.926c2.691-1.329 5.487-1.612 8.362-.787 1.356.389 2.674.911 3.992 1.421 1.679.649 3.38 1.203 5.169 1.477 3.58.551 7.013.071 10.297-1.434.832-.381 1.633-.832 2.428-1.288 2.688-1.548 4.547-3.818 5.666-6.681.402-1.025.694-2.096.985-3.162.429-1.572.079-3.02-.815-4.354-.538-.799-1.218-1.466-1.952-2.084-.344-.289-.73-.537-1.031-.978 1.244-1.116 2.641-1.98 3.92-3.07-.483-.603-1.129-.947-1.686-1.39-.567-.451-1.15-.878-1.794-1.367.206-.191.34-.365.517-.472 1.468-.895 2.947-1.775 4.413-2.672.174-.107.459-.153.423-.532-1.552-.412-3.183-.541-4.831-.971.016-.317-.005-.617.055-.899.777-3.783 2.537-7.003 5.525-9.512 2.602-2.185 5.614-3.521 8.907-4.267 2.509-.568 5.061-.761 7.618-.916 2.634-.16 5.265-.346 7.858-.866 2.906-.584 5.336-2.018 7.369-4.15 1.406-1.477 2.545-3.149 3.492-4.942.818-1.551 1.545-3.151 2.335-4.718.856-1.703 1.674-3.43 2.616-5.086 2.689-4.722 6.891-7.189 12.189-7.985 1.84-.277 3.66-.196 5.473.167 3.444.687 6.2 2.516 8.465 5.13 2.353 2.717 3.87 5.842 4.444 9.396.251 1.555.184 3.117 0 4.677-.132 1.097-.289 2.192-.38 3.294-.235 2.884.382 5.612 1.621 8.205.378.79.811 1.555 1.244 2.319.739 1.302 1.337 2.657 1.619 4.135.297 1.563.311 3.13-.239 4.63-1.425 3.905-4.066 6.486-8.259 7.27-2.196.411-4.298 1.074-6.298 2.056-.342.17-.686.339-1.012.537-1.863 1.128-2.765 2.796-2.719 4.959.012.568.124 1.135.218 1.696.093.563.229 1.118.334 1.681.438 2.381-.021 4.63-1.038 6.784-.705 1.495-1.664 2.826-2.774 4.048-1.411 1.55-3.239 2.258-5.27 2.492a28.458 28.458 0 0 1-5.039.112c-2.124-.133-4.143-.689-6.078-1.55-2.421-1.078-4.657-2.474-6.759-4.074-1.684-1.283-3.464-2.371-5.504-3.003-2.763-.856-5.434-.644-8.015.649-1.871.937-3.459 2.251-4.834 3.809a209.65 209.65 0 0 0-4.083 4.799c-1.371 1.648-2.82 3.215-4.478 4.584-2.657 2.197-5.614 3.814-8.993 4.618-2.794.663-5.595.704-8.427.284-2.918-.434-5.616-1.438-8.13-2.962-1.177-.714-2.351-1.429-3.533-2.133-1.411-.842-2.846-1.646-4.386-2.235-1.883-.72-3.808-1.095-5.839-.854-1.471.174-2.841.63-4.085 1.408-4.04 2.523-6.389 6.144-6.98 10.874-.112.909-.189 1.82-.296 2.728-.022.17-.118.33-.223.611l-.007-.007Zm85.416-51.862c-.361-.131-.605-.236-.858-.31-1.354-.401-2.703-.813-4.064-1.188-1.6-.439-1.361-.629-3.014.258-1.665.897-3.368.873-5.052.012a7.956 7.956 0 0 1-.892-.513c-.504-.341-1.007-.422-1.619-.25-1.837.512-3.693.961-5.537 1.445-.168.043-.316.162-.558.291.314.239.539.436.792.594 1.012.627 2.107 1.073 3.244 1.414 3.975 1.2 8.022 1.465 12.124.873 1.249-.181 2.471-.505 3.6-1.092.674-.351 1.33-.732 1.839-1.536l-.005.002ZM104.624 293.803c-6.434-.295-13.242-3.711-18.056-10.735-2.376-3.466-3.478-7.356-3.284-11.571.27-5.882 2.26-11.096 6.245-15.48 3.037-3.344 6.762-5.555 11.215-6.488 2.383-.498 4.779-.506 7.185-.186a24.067 24.067 0 0 1 10.974 4.329c3.1 2.214 5.564 4.983 7.241 8.42 1.59 3.265 2.198 6.698 1.88 10.323-.321 3.666-1.311 7.111-3.107 10.319-1.491 2.662-3.414 4.966-5.834 6.833-3.657 2.824-7.776 4.332-14.454 4.234l-.005.002Zm-7.934-19.926c-.048.85.108 1.777.378 2.705 1.296 4.458 8.352 7.836 13.105 3.087 1.921-1.92 3.325-4.167 4.09-6.789.699-2.39.557-4.751-.282-7.072-1.354-3.747-5.262-4.987-7.714-4.856-1.964.105-3.604.937-4.982 2.299-1.68 1.66-2.966 3.583-3.76 5.811-.54 1.517-.861 3.081-.833 4.815h-.002ZM249.753 267.466c-.102-.246-.21-.446-.272-.661-.957-3.294-1.89-6.595-2.875-9.879-.338-1.121-.189-1.565 1.045-1.878a24.896 24.896 0 0 0 6.848-2.864c2.38-1.443 4.406-3.275 6.123-5.46.596-.758.911-1.579.778-2.545-.082-.575-.319-.809-.886-.866a2.224 2.224 0 0 0-1.327.267c-.67.37-1.363.699-2.002 1.112-1.603 1.037-3.176 2.12-4.772 3.17-1.5.985-2.994 1.982-4.525 2.917-1.211.739-2.531 1.247-3.911 1.6-3.939 1.007-7.432.158-10.431-2.561-2.031-1.839-3.451-4.074-3.975-6.798-.364-1.899-.266-3.793.22-5.667.493-1.899 1.327-3.652 2.27-5.358 2.466-4.462 5.872-8.062 10.136-10.86 2.567-1.684 5.315-3.01 8.205-4.045.248-.091.507-.16.767-.212.103-.022.22.031.39.059.086.182.199.377.278.587 1.105 2.925 2.205 5.851 3.305 8.778.082.215.17.427.22.649.151.663 0 1.011-.598 1.316-.339.174-.7.306-1.054.444-2.686 1.054-5.196 2.426-7.408 4.286a29.504 29.504 0 0 0-2.72 2.619c-.535.582-.928 1.3-1.361 1.97-.143.22-.265.477-.311.733-.157.911.323 1.738 1.512 1.571.292-.04.584-.186.847-.334a21.463 21.463 0 0 0 1.657-1.02c1.634-1.131 3.239-2.3 4.882-3.418a121.36 121.36 0 0 1 4.509-2.941 15.676 15.676 0 0 1 4.533-1.887c2.827-.697 5.477-.277 7.9 1.321 2.837 1.87 4.879 4.372 5.812 7.683.715 2.533.579 5.057-.196 7.552-1.426 4.586-3.954 8.489-7.479 11.737-3.49 3.218-7.43 5.73-11.914 7.361-1.184.432-2.361.885-3.543 1.324-.208.076-.425.126-.679.2l.002-.002ZM218.152 273.834a93.261 93.261 0 0 0 2.334 4.215c.517-.012.847-.298 1.204-.494 5.219-2.879 10.433-5.767 15.647-8.651.395-.217.799-.412 1.163-.598.131.085.22.112.253.171 1.555 2.803 3.107 5.606 4.652 8.413.051.093.051.215.084.372-.184.122-.363.258-.557.367-9.25 5.136-18.499 10.269-27.715 15.38-.136-.098-.222-.126-.253-.183a66730.937 66730.937 0 0 1-19.377-35.19c-.069-.128-.11-.271-.146-.362.031-.1.038-.138.057-.169.02-.034.041-.072.072-.089 9.147-5.09 18.296-10.18 27.445-15.265.165-.093.344-.16.552-.258.572.642.876 1.431 1.289 2.147.44.758.854 1.534 1.28 2.302.407.734.813 1.469 1.215 2.206.4.73.83 1.445 1.225 2.266-2.019 1.164-3.997 2.235-5.958 3.332-1.969 1.1-3.942 2.187-5.908 3.292-1.957 1.097-3.937 2.161-5.925 3.32.72 1.484 1.49 2.826 2.217 4.141.519.086.806-.21 1.129-.389 4.851-2.676 9.697-5.36 14.545-8.041.431-.238.864-.467 1.285-.694.633.804 4.63 8.046 4.96 8.99-1.062.716-2.231 1.276-3.348 1.92-1.093.63-2.203 1.229-3.303 1.842-1.137.632-2.27 1.264-3.406 1.894-1.103.613-2.211 1.214-3.304 1.843-1.117.644-2.293 1.188-3.403 1.975l-.005-.005ZM182.147 276.69c-.33-.642-.591-1.193-.887-1.723-.627-1.116-1.438-2.075-2.56-2.721-3.19-1.839-7.321-1.288-9.747 1.701-1.169 1.443-1.76 3.117-1.949 4.932-.34 3.258.16 6.385 1.567 9.36.581 1.226 1.365 2.292 2.451 3.124 1.962 1.503 4.141 1.844 6.511 1.241 2.942-.749 4.784-2.583 5.518-5.522.074-.296.146-.592.218-.89.15-.639.591-.956 1.21-1.056.452-.074.909-.127 1.363-.191 2.689-.375 5.377-.744 8.063-1.126 1.505-.215 2.053.265 1.955 1.829-.22 3.504-1.287 6.732-3.325 9.608-2.878 4.062-6.788 6.65-11.586 7.905a27.14 27.14 0 0 1-8.183.873c-2.54-.122-4.997-.656-7.336-1.679-3.908-1.708-6.781-4.506-8.737-8.253-1.732-3.321-2.777-6.841-3.064-10.586-.268-3.501.05-6.934 1.136-10.278 1.598-4.918 4.76-8.482 9.496-10.578 3.889-1.722 7.972-2.65 12.253-2.524 3.2.096 6.188.945 8.924 2.61 2.83 1.722 5.148 3.94 6.671 6.922.624 1.223 1.294 2.423 1.94 3.635.072.133.151.267.201.41.265.758.005 1.29-.773 1.479-.519.126-1.054.186-1.583.257-2.727.368-5.456.733-8.185 1.09-.49.065-.983.098-1.557.153l-.005-.002ZM77.734 224.604c-.232.417-.425.784-.633 1.142l-11.44 19.559c-.173.296-.357.589-.51.894-.063.122-.058.275-.096.48.206 0 .366.045.48-.007.381-.177.747-.387 1.115-.587l19.183-10.54c.302-.165.605-.327.962-.518.198.145.42.284.612.458a3854.37 3854.37 0 0 1 7.927 7.287c.28.257.562.52.808.811.39.462.335.901-.162 1.273a5.61 5.61 0 0 1-.89.516c-3.81 1.858-7.626 3.711-11.436 5.567-8.173 3.981-16.343 7.964-24.514 11.95-1.545.753-1.813.706-2.978-.513-2.294-2.402-4.6-4.792-6.9-7.189-.132-.139-.27-.272-.395-.415-.495-.575-.598-1.221-.318-1.918.112-.281.265-.549.404-.82 5.996-11.755 11.995-23.507 17.992-35.261.138-.272.277-.546.44-.802.543-.846 1.028-.923 1.767-.283.172.15.33.317.49.481l4.607 4.788c.902.935 1.809 1.862 2.708 2.8.26.269.507.551.785.851l-.008-.004ZM149.063 261.615c.153.472.021.887-.032 1.288-.246 1.851-.523 3.699-.791 5.548-.414 2.867-.825 5.734-1.239 8.603-.431 2.982-.866 5.961-1.294 8.943-.424 2.943-.84 5.886-1.258 8.83-.316 2.228-.622 4.455-.95 6.681-.227 1.538-.608 1.839-2.122 1.636-2.31-.31-4.616-.658-6.924-.992-.832-.12-1.665-.236-2.497-.363-.524-.079-1.048-.172-1.636-.267 0-.303-.031-.561.005-.811.832-5.851 1.662-11.699 2.509-17.548.724-5.018 1.471-10.032 2.198-15.051.272-1.886.512-3.778.775-5.665.069-.491.139-.985.275-1.459.21-.737.662-1.09 1.43-1.067.646.02 1.292.134 1.933.229 3.023.451 6.046.909 9.07 1.365.182.028.361.069.548.102v-.002Z"/></g><defs><clipPath id="a"><path fill="#fff" d="M0 0h320v320H0z"/></clipPath></defs></svg>