<svg xmlns="http://www.w3.org/2000/svg" fill="none" viewBox="0 0 295 218"><path fill="#fff" d="M2.802 217.129c-1.303-2.701-1.75-5.3-1.876-7.893-.52-10.809 2.375-20.55 9.485-28.879 3.326-3.898 7.276-7.017 11.893-9.3 6.375-3.147 12.998-3.819 19.809-1.864 3.212.921 6.334 2.158 9.456 3.367 3.978 1.537 8.006 2.848 12.244 3.498 8.483 1.305 16.613.169 24.393-3.396 1.971-.904 3.87-1.972 5.75-3.051 6.369-3.667 10.772-9.046 13.423-15.827.952-2.429 1.644-4.966 2.335-7.492 1.014-3.723.187-7.153-1.932-10.311-1.275-1.893-2.884-3.475-4.624-4.939-.816-.683-1.728-1.271-2.442-2.316 2.947-2.645 6.255-4.69 9.287-7.272-1.145-1.43-2.675-2.243-3.995-3.294-1.343-1.068-2.725-2.079-4.249-3.238.487-.452.804-.864 1.224-1.119 3.479-2.118 6.98-4.203 10.453-6.328.414-.254 1.088-.361 1.003-1.26-3.677-.977-7.541-1.282-11.445-2.299.04-.752-.011-1.464.13-2.131 1.842-8.96 6.012-16.589 13.089-22.533 6.164-5.175 13.298-8.34 21.1-10.108 5.944-1.345 11.989-1.802 18.046-2.17 6.238-.378 12.471-.819 18.613-2.05 6.884-1.385 12.641-4.78 17.457-9.832 3.332-3.498 6.029-7.458 8.272-11.707 1.938-3.673 3.661-7.464 5.53-11.176 2.029-4.035 3.967-8.126 6.199-12.047 6.369-11.187 16.324-17.03 28.874-18.917 4.357-.655 8.669-.463 12.964.396 8.159 1.627 14.686 5.96 20.052 12.153 5.575 6.436 9.167 13.838 10.527 22.257.595 3.684.436 7.385 0 11.08-.311 2.599-.685 5.192-.901 7.803-.555 6.83.907 13.295 3.842 19.437.895 1.87 1.921 3.684 2.946 5.492 1.751 3.085 3.168 6.294 3.836 9.797.703 3.7.737 7.413-.566 10.967-3.377 9.25-9.633 15.363-19.565 17.222-5.202.972-10.182 2.543-14.919 4.871-.81.401-1.626.802-2.397 1.271-4.413 2.672-6.549 6.622-6.442 11.747.028 1.344.295 2.689.516 4.017.221 1.333.544 2.65.793 3.983 1.037 5.639-.051 10.967-2.459 16.07-1.671 3.542-3.944 6.695-6.573 9.588-3.343 3.673-7.671 5.351-12.482 5.905-3.966.457-7.949.514-11.938.265-5.032-.316-9.814-1.633-14.397-3.673-5.734-2.553-11.032-5.859-16.013-9.65-3.988-3.04-8.204-5.616-13.037-7.114-6.544-2.028-12.873-1.525-18.987 1.537-4.431 2.221-8.193 5.334-11.451 9.023-3.292 3.73-6.493 7.544-9.672 11.369-3.246 3.904-6.68 7.616-10.606 10.859-6.295 5.204-13.299 9.035-21.305 10.939-6.617 1.571-13.252 1.667-19.96.673-6.913-1.029-13.305-3.407-19.26-7.018-2.787-1.689-5.57-3.384-8.368-5.051-3.343-1.995-6.743-3.899-10.392-5.294-4.459-1.707-9.02-2.594-13.83-2.023-3.485.412-6.732 1.491-9.678 3.333-9.57 5.978-15.134 14.555-16.534 25.76-.266 2.153-.447 4.311-.702 6.464-.051.401-.278.779-.527 1.446l-.017-.017ZM205.14 94.276c-.856-.31-1.434-.56-2.034-.734-3.207-.95-6.403-1.927-9.627-2.814-3.79-1.04-3.224-1.492-7.139.61-3.944 2.125-7.978 2.068-11.967.028-.725-.367-1.445-.757-2.113-1.214-1.196-.808-2.385-1-3.836-.594-4.351 1.215-8.748 2.277-13.117 3.424-.396.102-.748.385-1.32.69.742.565 1.275 1.034 1.875 1.407 2.397 1.486 4.992 2.542 7.684 3.35 9.416 2.842 19.003 3.469 28.721 2.068 2.957-.429 5.853-1.198 8.527-2.588 1.598-.83 3.15-1.734 4.357-3.638l-.011.005Z"/></svg>